<svg width="24" height="24" fill="none" xmlns="http://www.w3.org/2000/svg"><path fill-rule="evenodd" clip-rule="evenodd" d="m10.797 13.213 1.692-.684.714-1.742-1.692.684-.714 1.742Zm5.128-3.793-1.746 4.258c-.102.25-.3.447-.55.549l-4.213 1.701a1.01 1.01 0 0 1-.374.072.998.998 0 0 1-.713-.31c-.018-.017-.037-.031-.054-.048-.009-.011-.015-.024-.023-.035a.991.991 0 0 1-.178-1.027l1.746-4.258a.998.998 0 0 1 .551-.548l4.213-1.702a1.003 1.003 0 0 1 1.1.246.996.996 0 0 1 .241 1.102ZM12 2C6.486 2 2 6.486 2 12s4.486 10 10 10 10-4.486 10-10S17.514 2 12 2Z" fill="#231F20"></path><mask id="compass_svg__a" maskUnits="userSpaceOnUse" x="2" y="2" width="21" height="20" style="mask-type: alpha;"><path fill-rule="evenodd" clip-rule="evenodd" d="m10.797 13.213 1.692-.684.714-1.742-1.692.684-.714 1.742Zm5.128-3.793-1.746 4.258c-.102.25-.3.447-.55.549l-4.213 1.701a1.01 1.01 0 0 1-.374.072.998.998 0 0 1-.713-.31c-.018-.017-.037-.031-.054-.048-.009-.011-.015-.024-.023-.035a.991.991 0 0 1-.178-1.027l1.746-4.258a.998.998 0 0 1 .551-.548l4.213-1.702a1.003 1.003 0 0 1 1.1.246.996.996 0 0 1 .241 1.102ZM12 2C6.486 2 2 6.486 2 12s4.486 10 10 10 10-4.486 10-10S17.514 2 12 2Z" fill="#fff"></path></mask><g mask="url(#compass_svg__a)"><path fill="#101010" d="M0 0h24v24H0z"></path></g></svg>